<svg xmlns="http://www.w3.org/2000/svg" width="22" height="25" viewBox="0 0 22 25"> <path fill="#fff" d="M8.063 5.406a2.04 2.04 0 0 1 2.042 2.037 2.04 2.04 0 0 1-2.042 2.036 2.04 2.04 0 0 1-2.042-2.036 2.04 2.04 0 0 1 2.042-2.037zm4.438 8.315a1.307 1.307 0 1 1 0 2.612 1.307 1.307 0 0 1 0-2.612zm9.383 1.519c-.7.77-1.889.798-1.889.798s.773 1.463.426 1.868c-.348.406-1.313.232-1.313.232s.897.646.897 1.146c0 .5-1.515 1.167-1.515 1.167s.278 2.772-1.999 2.58c-2.275-.193-2.657-.833-2.657-.833l-.674 2.8H4.352l.309-6.09S-.748 13.05.103 7.81C.53 5.718.258 1.335 7.52.18 14.782-.978 21.325 2.7 19.68 10.734c0 1.465 2.905 3.739 2.204 4.506zM7.757 12.485l2.02-.184.655-.654-.095-1.05c.165-.094.324-.196.472-.311.264.15.79.454.79.454l.896-.235 1.015-1.753-.235-.893-1.015-.586a3.573 3.573 0 0 0-.07-.573c.267-.23.804-.687.804-.687V5.09l-1.322-1.538h-.927l-.657.563c-.24-.116-.49-.21-.754-.281l-.063-.78-.655-.655-2.023.163-.655.653.084 1.029c-.198.112-.386.24-.56.38l-.853-.39-.896.235-.847 1.841-.03.126.264.77.991.45c.015.218.048.43.103.636l-.757.64v.923L4.75 11.4s.763.09.804.068l.123-.068.72-.607c.201.09.412.167.632.225l.073.814zm8.238 3.382l-.15-.574-.652-.375a2.178 2.178 0 0 0-.044-.368l.515-.441v-.593l-.848-.987h-.595l-.421.361a2.835 2.835 0 0 0-.484-.18l-.04-.5-.42-.42-1.298.105-.42.418.054.66a2.522 2.522 0 0 0-.36.244l-.546-.25-.576.151-.543 1.18-.019.082.17.493.636.289c.01.14.03.275.066.408l-.485.41v.592l.841.993s.49.058.516.043l.078-.043.462-.39c.13.057.263.108.404.145l.048.522.42.42 1.295-.119.42-.418-.062-.674c.107-.06.21-.125.304-.2l.507.291.574-.15z"/></svg>