<svg xmlns="http://www.w3.org/2000/svg" width="23" height="21" viewBox="0 0 23 21"> <path fill="#fff" d="M22.981 8.11c.039.229 0 .603-.042.83l-1.726 9.218c-.043.228-.073.602-.12.829C20.855 20.13 19.67 21 18.509 21h-8.175c-.474 0-.914-.149-1.282-.4-.187-.128-.475-.355-.666-.476-.702-.445-1.505-.959-2.738-1.053a2.094 2.094 0 0 1-.76-.22l-1.172-.682a.797.797 0 0 1-.354-.626V9.272c0-.231.171-.483.382-.562L6.466 7.7c.211-.079.544-.228.741-.339.968-.547 3.65-2.183 5.047-4.217C13.327 1.579 14.386 0 15.116 0c.443 0 .765.579.898 2.09.16 1.816-.14 2.882-.668 3.675-.126.192-.064.334.16.334h5.16c1.16 0 2.124.87 2.315 2.012zm-20.138.5v9.657c0 .387-.303.7-.677.7H.676a.689.689 0 0 1-.676-.7V8.611c0-.387.303-.7.677-.7h1.49c.373 0 .676.313.676.7z"/></svg>