<svg xmlns="http://www.w3.org/2000/svg" width="16" height="19" viewBox="0 0 16 19"> <path fill="#fc635e" d="M12.275 11.502c.266 1.483.456 4.717-2.418 6.428-.384.228-.665.011-.658-.431.029-1.95-.692-6.794-8.601-6.647-.448.007-.718-.317-.543-.724.555-1.293 2.093-3.783 5.687-3.662.447.015.973-.252 1.21-.627.622-.983 1.974-2.804 4.11-4.105A9.819 9.819 0 0 1 14.348.408c.439-.086.814-.126.829-.15.01-.012.019-.026.029-.04.104-.13.226-.209.273-.174l.034.025c.02.013.15-.012.293-.056.143-.045.235.025.204.155-.029.13-.04.245-.025.257l.028.02c.046.037 0 .172-.105.303a1.052 1.052 0 0 1-.041.051c-.025.027.01.401.03.843a9.934 9.934 0 0 1-.124 2.051l-.037.225-.032.168c-.052.27-.11.511-.163.713-.104.39-.334 1.037-.503 1.447-.496 1.2-1.257 2.513-2.41 3.873-.287.34-.431.948-.353 1.383zm-.354-3.815c.434-.735.166-1.683-.596-2.115a1.613 1.613 0 0 0-1.978.292c-.069.075-.13.156-.184.248-.434.734-.167 1.681.597 2.115.665.379 1.489.24 1.978-.292.066-.074.13-.156.183-.248zM4.316 18.2c.367-.885 1.162-2.35 2.65-3.284.377-.238.61-.035.44.374-.385.927-1.206 2.48-2.625 3.322-.384.228-.635-.002-.465-.412zm-2.85.29c.444-1.198 1.555-3.522 3.83-4.87.384-.226.62-.026.463.388-.47 1.253-1.635 3.732-3.801 4.911-.392.213-.645-.015-.492-.43zm-.482-2.867c.367-.885 1.162-2.35 2.65-3.283.377-.237.61-.034.44.375-.386.926-1.206 2.478-2.625 3.32-.384.227-.636-.003-.465-.412z"/></svg>